<?xml version="1.0" standalone="no"?>
<!DOCTYPE svg PUBLIC "-//W3C//DTD SVG 1.1//EN" "https://www.w3.org/Graphics/SVG/1.1/DTD/svg11.dtd">

<svg width="800" height="600" version="1.1" xmlns="http://www.w3.org/2000/svg">
	<ellipse stroke="black" stroke-width="1" fill="none" cx="115.5" cy="276.5" rx="30" ry="30"/>
	<text x="110.5" y="282.5" font-family="Times New Roman" font-size="20">0</text>
	<ellipse stroke="black" stroke-width="1" fill="none" cx="262.5" cy="109.5" rx="30" ry="30"/>
	<text x="257.5" y="115.5" font-family="Times New Roman" font-size="20">1</text>
	<ellipse stroke="black" stroke-width="1" fill="none" cx="377.5" cy="241.5" rx="30" ry="30"/>
	<text x="372.5" y="247.5" font-family="Times New Roman" font-size="20">2</text>
	<ellipse stroke="black" stroke-width="1" fill="none" cx="647.5" cy="359.5" rx="30" ry="30"/>
	<text x="642.5" y="365.5" font-family="Times New Roman" font-size="20">7</text>
	<ellipse stroke="black" stroke-width="1" fill="none" cx="647.5" cy="359.5" rx="24" ry="24"/>
	<ellipse stroke="black" stroke-width="1" fill="none" cx="238.5" cy="423.5" rx="30" ry="30"/>
	<text x="233.5" y="429.5" font-family="Times New Roman" font-size="20">3</text>
	<ellipse stroke="black" stroke-width="1" fill="none" cx="238.5" cy="423.5" rx="24" ry="24"/>
	<ellipse stroke="black" stroke-width="1" fill="none" cx="518.5" cy="395.5" rx="30" ry="30"/>
	<text x="513.5" y="401.5" font-family="Times New Roman" font-size="20">4</text>
	<ellipse stroke="black" stroke-width="1" fill="none" cx="397.5" cy="519.5" rx="30" ry="30"/>
	<text x="392.5" y="525.5" font-family="Times New Roman" font-size="20">5</text>
	<ellipse stroke="black" stroke-width="1" fill="none" cx="397.5" cy="519.5" rx="24" ry="24"/>
	<ellipse stroke="black" stroke-width="1" fill="none" cx="608.5" cy="116.5" rx="30" ry="30"/>
	<text x="603.5" y="122.5" font-family="Times New Roman" font-size="20">6</text>
	<path stroke="black" stroke-width="1" fill="none" d="M 122.827,247.434 A 214.671,214.671 0 0 1 234.598,120.455"/>
	<polygon fill="black" stroke-width="1" points="234.598,120.455 225.226,119.377 229.522,128.407"/>
	<text x="151.5" y="163.5" font-family="Times New Roman" font-size="20">a</text>
	<path stroke="black" stroke-width="1" fill="none" d="M 292.352,111.284 A 109.034,109.034 0 0 1 379.823,211.685"/>
	<polygon fill="black" stroke-width="1" points="379.823,211.685 384.336,203.4 374.353,203.998"/>
	<text x="358.5" y="138.5" font-family="Times New Roman" font-size="20">b</text>
	<path stroke="black" stroke-width="1" fill="none" d="M 367.277,269.58 A 22.5,22.5 0 1 1 348.994,250.466"/>
	<text x="285.5" y="308.5" font-family="Times New Roman" font-size="20">a,b,c</text>
	<polygon fill="black" stroke-width="1" points="348.994,250.466 340.394,246.587 341.739,256.497"/>
	<path stroke="black" stroke-width="1" fill="none" d="M 507.083,423.211 A 195.499,195.499 0 0 1 424.923,507.408"/>
	<polygon fill="black" stroke-width="1" points="424.923,507.408 434.336,508.035 429.612,499.222"/>
	<text x="477.5" y="492.5" font-family="Times New Roman" font-size="20">b</text>
	<path stroke="black" stroke-width="1" fill="none" d="M 381.57,271.17 A 147.309,147.309 0 0 1 268.195,419.617"/>
	<polygon fill="black" stroke-width="1" points="268.195,419.617 277.13,422.645 274.833,412.913"/>
	<text x="357.5" y="385.5" font-family="Times New Roman" font-size="20">a,c</text>
	<path stroke="black" stroke-width="1" fill="none" d="M 407.265,238.437 A 119.87,119.87 0 0 1 524.169,366.12"/>
	<polygon fill="black" stroke-width="1" points="524.169,366.12 529.682,358.464 519.703,357.81"/>
	<text x="498.5" y="268.5" font-family="Times New Roman" font-size="20">b,c</text>
	<path stroke="black" stroke-width="1" fill="none" d="M 290.418,98.537 A 414.537,414.537 0 0 1 581.048,104.417"/>
	<polygon fill="black" stroke-width="1" points="581.048,104.417 575.462,96.815 571.767,106.107"/>
	<text x="431.5" y="65.5" font-family="Times New Roman" font-size="20">b</text>
	<path stroke="black" stroke-width="1" fill="none" d="M 636.405,127.344 A 134.671,134.671 0 0 1 670.61,340.468"/>
	<polygon fill="black" stroke-width="1" points="670.61,340.468 679.77,338.21 672.594,331.245"/>
	<text x="714.5" y="229.5" font-family="Times New Roman" font-size="20">b</text>
</svg>
